C:\Users\Nicos\Documents\OpenSimProjects\SprintingProject\Study1\PredictiveResults\IC_pred_Sprinting_optimum_28-October-2023__10-02-52_p02_maxVel_01___HTD_Plus_6_GRF.mot
version=1
nRows=6
nColumns=127
inDegrees=yes
endheader
time	ground_force_vx	ground_force_vy	ground_force_vz	ground_force_px	ground_force_py	ground_force_pz	ground_torque_x	ground_torque_y	ground_torque_z	1_ground_force_vx	1_ground_force_vy	1_ground_force_vz	1_ground_force_px	1_ground_force_py	1_ground_force_pz	1_ground_torque_x	1_ground_torque_y	1_ground_torque_z	2_ground_force_vx	2_ground_force_vy	2_ground_force_vz	2_ground_force_px	2_ground_force_py	2_ground_force_pz	2_ground_torque_x	2_ground_torque_y	2_ground_torque_z	3_ground_force_vx	3_ground_force_vy	3_ground_force_vz	3_ground_force_px	3_ground_force_py	3_ground_force_pz	3_ground_torque_x	3_ground_torque_y	3_ground_torque_z	4_ground_force_vx	4_ground_force_vy	4_ground_force_vz	4_ground_force_px	4_ground_force_py	4_ground_force_pz	4_ground_torque_x	4_ground_torque_y	4_ground_torque_z	5_ground_force_vx	5_ground_force_vy	5_ground_force_vz	5_ground_force_px	5_ground_force_py	5_ground_force_pz	5_ground_torque_x	5_ground_torque_y	5_ground_torque_z	6_ground_force_vx	6_ground_force_vy	6_ground_force_vz	6_ground_force_px	6_ground_force_py	6_ground_force_pz	6_ground_torque_x	6_ground_torque_y	6_ground_torque_z	7_ground_force_vx	7_ground_force_vy	7_ground_force_vz	7_ground_force_px	7_ground_force_py	7_ground_force_pz	7_ground_torque_x	7_ground_torque_y	7_ground_torque_z	8_ground_force_vx	8_ground_force_vy	8_ground_force_vz	8_ground_force_px	8_ground_force_py	8_ground_force_pz	8_ground_torque_x	8_ground_torque_y	8_ground_torque_z	9_ground_force_vx	9_ground_force_vy	9_ground_force_vz	9_ground_force_px	9_ground_force_py	9_ground_force_pz	9_ground_torque_x	9_ground_torque_y	9_ground_torque_z	10_ground_force_vx	10_ground_force_vy	10_ground_force_vz	10_ground_force_px	10_ground_force_py	10_ground_force_pz	10_ground_torque_x	10_ground_torque_y	10_ground_torque_z	11_ground_force_vx	11_ground_force_vy	11_ground_force_vz	11_ground_force_px	11_ground_force_py	11_ground_force_pz	11_ground_torque_x	11_ground_torque_y	11_ground_torque_z	12_ground_force_vx	12_ground_force_vy	12_ground_force_vz	12_ground_force_px	12_ground_force_py	12_ground_force_pz	12_ground_torque_x	12_ground_torque_y	12_ground_torque_z	13_ground_force_vx	13_ground_force_vy	13_ground_force_vz	13_ground_force_px	13_ground_force_py	13_ground_force_pz	13_ground_torque_x	13_ground_torque_y	13_ground_torque_z
0.107357	39.531096	507.017563	-147.820887	0.560514	-0.013462	0.401343	0.000000	0.000000	0.000000	92.197361	454.660084	92.098621	0.514272	-0.013017	0.419457	0.000000	0.000000	0.000000	149.280401	564.327793	-83.949374	0.482067	-0.015466	0.406551	0.000000	0.000000	0.000000	197.869684	688.223207	-79.933236	0.487750	-0.017533	0.384939	0.000000	0.000000	0.000000	-80.785043	318.290568	56.532750	0.393441	-0.011416	0.429016	0.000000	0.000000	0.000000	163.321259	545.623481	-20.704847	0.453052	-0.015482	0.398927	0.000000	0.000000	0.000000	39.103403	470.208983	138.709911	0.336991	-0.015546	0.368433	0.000000	0.000000	0.000000	-0.000000	0.000000	-0.000000	0.232494	0.288544	0.139915	0.000000	0.000000	0.000000	-0.000000	0.000000	-0.000000	0.256508	0.309768	0.130492	0.000000	0.000000	0.000000	-0.000000	0.000000	-0.000000	0.266986	0.320908	0.141343	0.000000	0.000000	0.000000	-0.000000	0.000000	-0.000000	0.255619	0.318578	0.160462	0.000000	0.000000	0.000000	-0.000000	0.000000	-0.000000	0.306146	0.362105	0.131217	0.000000	0.000000	0.000000	-0.000000	0.000000	-0.000000	0.273230	0.334627	0.151742	0.000000	0.000000	0.000000	-0.000000	0.000000	-0.000000	0.298206	0.389504	0.193340	0.000000	0.000000	0.000000
0.109427	115.671334	539.668922	-117.149469	0.560659	-0.014057	0.401350	0.000000	0.000000	0.000000	122.439598	448.755599	23.074344	0.514445	-0.012990	0.419432	0.000000	0.000000	0.000000	156.869611	532.286215	-41.569642	0.482153	-0.015041	0.406546	0.000000	0.000000	0.000000	201.032523	658.924127	-45.472782	0.487739	-0.017220	0.384952	0.000000	0.000000	0.000000	-70.158542	246.058862	32.908847	0.393749	-0.009843	0.428939	0.000000	0.000000	0.000000	147.876822	493.467552	18.123258	0.453149	-0.014710	0.398909	0.000000	0.000000	0.000000	-42.435453	354.214207	100.627630	0.337132	-0.013385	0.368363	0.000000	0.000000	0.000000	-0.000000	0.000000	-0.000000	0.268748	0.284902	0.138249	0.000000	0.000000	0.000000	-0.000000	0.000000	-0.000000	0.291489	0.306462	0.128719	0.000000	0.000000	0.000000	-0.000000	0.000000	-0.000000	0.300887	0.317983	0.139777	0.000000	0.000000	0.000000	-0.000000	0.000000	-0.000000	0.289440	0.315559	0.158802	0.000000	0.000000	0.000000	-0.000000	0.000000	-0.000000	0.337916	0.359663	0.129542	0.000000	0.000000	0.000000	-0.000000	0.000000	-0.000000	0.306273	0.331813	0.150066	0.000000	0.000000	0.000000	-0.000000	0.000000	-0.000000	0.327818	0.387135	0.191219	0.000000	0.000000	0.000000
0.110927	142.822492	563.562181	-99.944815	0.560750	-0.014480	0.401363	0.000000	0.000000	0.000000	128.115313	441.950922	-32.602246	0.514583	-0.012914	0.419420	0.000000	0.000000	0.000000	154.216750	505.223433	-14.440473	0.482229	-0.014638	0.406539	0.000000	0.000000	0.000000	197.836538	633.210464	-26.094600	0.487730	-0.016899	0.384957	0.000000	0.000000	0.000000	-55.895236	193.389286	26.390936	0.394050	-0.008509	0.428878	0.000000	0.000000	0.000000	123.705193	451.524666	58.214975	0.453246	-0.014019	0.398891	0.000000	0.000000	0.000000	-53.912483	271.731682	66.320949	0.337317	-0.011539	0.368299	0.000000	0.000000	0.000000	-0.000000	0.000000	-0.000000	0.295056	0.282176	0.137185	0.000000	0.000000	0.000000	-0.000000	0.000000	-0.000000	0.316832	0.303970	0.127538	0.000000	0.000000	0.000000	-0.000000	0.000000	-0.000000	0.325394	0.315770	0.138731	0.000000	0.000000	0.000000	-0.000000	0.000000	-0.000000	0.313901	0.313278	0.157692	0.000000	0.000000	0.000000	-0.000000	0.000000	-0.000000	0.360830	0.357787	0.128365	0.000000	0.000000	0.000000	-0.000000	0.000000	-0.000000	0.330148	0.329676	0.148923	0.000000	0.000000	0.000000	-0.000000	0.000000	-0.000000	0.349163	0.385301	0.189692	0.000000	0.000000	0.000000
0.111582	150.924878	574.139067	-96.725883	0.560783	-0.014664	0.401372	0.000000	0.000000	0.000000	127.527677	438.377804	-37.410374	0.514645	-0.012867	0.419416	0.000000	0.000000	0.000000	151.257754	492.433250	-9.266021	0.482265	-0.014438	0.406535	0.000000	0.000000	0.000000	195.244928	620.822180	-21.749378	0.487726	-0.016735	0.384958	0.000000	0.000000	0.000000	-49.111202	170.777057	24.615246	0.394203	-0.007877	0.428848	0.000000	0.000000	0.000000	112.859750	432.269164	66.972290	0.453297	-0.013683	0.398881	0.000000	0.000000	0.000000	-50.348146	236.943595	56.171916	0.337426	-0.010660	0.368264	0.000000	0.000000	0.000000	-0.000000	0.000000	-0.000000	0.306555	0.280963	0.136762	0.000000	0.000000	0.000000	-0.000000	0.000000	-0.000000	0.327899	0.302857	0.127054	0.000000	0.000000	0.000000	-0.000000	0.000000	-0.000000	0.336083	0.314779	0.138300	0.000000	0.000000	0.000000	-0.000000	0.000000	-0.000000	0.324572	0.312257	0.157235	0.000000	0.000000	0.000000	-0.000000	0.000000	-0.000000	0.370809	0.356940	0.127862	0.000000	0.000000	0.000000	-0.000000	0.000000	-0.000000	0.340558	0.328717	0.148445	0.000000	0.000000	0.000000	-0.000000	0.000000	-0.000000	0.358458	0.384468	0.189029	0.000000	0.000000	0.000000
0.113652	170.907392	607.331930	-95.801605	0.560847	-0.015240	0.401425	0.000000	0.000000	0.000000	125.315018	424.423664	-40.016521	0.514837	-0.012665	0.419420	0.000000	0.000000	0.000000	139.541734	448.489669	5.864590	0.482391	-0.013710	0.406524	0.000000	0.000000	0.000000	184.779577	577.289160	-7.962113	0.487716	-0.016117	0.384962	0.000000	0.000000	0.000000	-29.062853	103.174460	17.686356	0.394791	-0.005684	0.428735	0.000000	0.000000	0.000000	72.372825	368.518297	86.570366	0.453495	-0.012488	0.398842	0.000000	0.000000	0.000000	-32.911019	135.539305	31.128217	0.337908	-0.007600	0.368115	0.000000	0.000000	0.000000	-0.000000	0.000000	-0.000000	0.342929	0.277046	0.135619	0.000000	0.000000	0.000000	-0.000000	0.000000	-0.000000	0.362866	0.299242	0.125669	0.000000	0.000000	0.000000	-0.000000	0.000000	-0.000000	0.369807	0.311545	0.137055	0.000000	0.000000	0.000000	-0.000000	0.000000	-0.000000	0.358258	0.308929	0.155916	0.000000	0.000000	0.000000	-0.000000	0.000000	-0.000000	0.402237	0.354142	0.126324	0.000000	0.000000	0.000000	-0.000000	0.000000	-0.000000	0.373392	0.325576	0.147036	0.000000	0.000000	0.000000	-0.000000	0.000000	-0.000000	0.387735	0.381702	0.186958	0.000000	0.000000	0.000000
0.115152	185.293927	630.612188	-95.919996	0.560848	-0.015648	0.401484	0.000000	0.000000	0.000000	123.959404	411.614486	-37.296622	0.514973	-0.012464	0.419432	0.000000	0.000000	0.000000	128.656432	413.561427	18.371391	0.482499	-0.013089	0.406512	0.000000	0.000000	0.000000	175.025411	541.772889	4.725894	0.487715	-0.015575	0.384958	0.000000	0.000000	0.000000	-16.743187	60.164868	11.471510	0.395327	-0.003915	0.428630	0.000000	0.000000	0.000000	43.653528	320.277707	88.762909	0.453682	-0.011494	0.398802	0.000000	0.000000	0.000000	-19.256904	73.741843	17.087991	0.338416	-0.005117	0.367963	0.000000	0.000000	0.000000	-0.000000	0.000000	-0.000000	0.369339	0.274128	0.134987	0.000000	0.000000	0.000000	-0.000000	0.000000	-0.000000	0.388219	0.296529	0.124815	0.000000	0.000000	0.000000	-0.000000	0.000000	-0.000000	0.394214	0.309103	0.136275	0.000000	0.000000	0.000000	-0.000000	0.000000	-0.000000	0.382655	0.306419	0.155092	0.000000	0.000000	0.000000	-0.000000	0.000000	-0.000000	0.424930	0.351998	0.125265	0.000000	0.000000	0.000000	-0.000000	0.000000	-0.000000	0.397149	0.323196	0.146118	0.000000	0.000000	0.000000	-0.000000	0.000000	-0.000000	0.408889	0.379570	0.185489	0.000000	0.000000	0.000000
